<?xml version="1.0" encoding="utf-8"?>
<!-- Generator: Adobe Illustrator 24.2.1, SVG Export Plug-In . SVG Version: 6.00 Build 0)  -->
<svg version="1.1" id="图层_1" xmlns="http://www.w3.org/2000/svg" xmlns:xlink="http://www.w3.org/1999/xlink" x="0px" y="0px"
	 viewBox="0 0 720 337.5" style="enable-background:new 0 0 720 337.5;" xml:space="preserve">
<style type="text/css">
	.st0{fill:#F6F8FA;}
	.st1{fill:#E1E4E8;}
</style>
<rect class="st0" width="720" height="337.5"/>
<g>
	<path class="st1" d="M327.1,174.8C327.1,174.8,327.1,174.8,327.1,174.8c0,0.1,0,0.1,0,0.2C327.1,174.6,327.1,174.6,327.1,174.8z"/>
	<path class="st1" d="M383.3,164.6C383.3,164.6,383.3,164.6,383.3,164.6c0,0.3-0.1,0.4-0.1,0.5C383.2,165,383.2,164.8,383.3,164.6z"
		/>
	<path class="st1" d="M462.6,181.9c-13.7-3.8-28.3-2-42.1,0.4c-8.6,1.5-17.1,3.5-25.6,5.3c-3.4,0.7-6.9,1.4-10.4,2
		c-0.2,0-0.4,0.1-0.6,0.1c1.1-1.2,2.2-2.4,3.2-3.7c4-5,7.5-10.3,8.8-16.7c1.4-6.8,0.9-14.1-2.7-20.2c-8.5-14.3-26.8-13.4-40.9-10
		c-14.5,3.4-30,12.2-36.2,26.4c-2.5,5.8-3.5,12.4-1.4,18.6c2.1,6.2,6.5,11.3,12.1,14.7c5.4,3.3,11.7,4.9,17.9,5.6
		c-4.1,2.7-8.4,5.2-12.7,7.7c-28.5,16-61.7,27.2-94.6,24c-0.2,0-1.8-0.2-1.6-0.2c-0.8-0.1-1.6-0.3-2.5-0.4c-1.8-0.4-3.6-0.9-5.3-1.5
		c-0.4-0.1-0.8-0.3-1.3-0.5c-0.7-0.3-1.4-0.7-2.1-1c-0.8-0.4-1.5-0.9-2.3-1.4c-0.1,0-0.3-0.3-0.5-0.4c-0.3-0.3-0.7-0.6-1-0.9
		c-1.5-1.4-1.5-1.4-2.5-3c-0.2-0.3-0.3-0.5-0.4-0.8c0-0.1-0.2-0.4-0.3-0.7c-0.1-0.1-0.1-0.3-0.1-0.3c-0.2-0.6-0.4-1.2-0.6-1.8
		c-0.2-0.7-0.3-1.5-0.5-2.2c0-0.1,0-0.2-0.1-0.3c0-0.3-0.1-0.6-0.1-0.9c-0.1-1.8-0.2-3.7,0-5.5c0.1-2.1,0.2-2.5,0.5-4.2
		c0.3-1.9,0.8-3.7,1.3-5.6c0.9-3.4,2.1-6.6,3.2-8.8c3.2-6.8,7.1-13.3,11.3-19.5c4.2-6.3,8.1-11.1,13.2-16.9
		c4.9-5.4,10.2-10.5,15.8-15.3c10.7-9.1,23.7-17.3,37.1-23.6c4-1.9,6.6-3,10.6-4.5c4.3-1.7,8.7-3.3,13.1-4.7
		c8.8-2.9,17.8-5.2,26.9-6.9c16.6-3.2,33.8-4.2,50.8-3c7.9,0.6,14.5,1.5,22.3,3.1c3.5,0.7,7.2-1,8.2-4.7c0.9-3.3-1.1-7.5-4.7-8.2
		c-35.8-7.5-73.3-4.3-108,7.1c-31.4,10.3-60.4,27.4-82.5,52.3c-10.3,11.6-19.9,24.9-26.2,39.1c-6,13.5-10.4,32.7-0.8,45.6
		c10.6,14.1,30.4,14.7,46.5,13.9c17.9-0.9,35.5-4.9,52.3-11.4c15.9-6.1,31.1-13.8,45.3-23.1c4.9-3.2,9.8-6.6,14.5-10.2
		c1.4-0.1,2.8-0.1,4.2-0.2c15.5-1.2,30.7-5.1,45.9-8.2c4.4-0.9,8.7-1.7,13.1-2.3c1.2-0.2,1.2-0.2,1.9-0.3c0.8-0.1,1.6-0.2,2.5-0.3
		c1.9-0.2,3.8-0.4,5.7-0.5c3.2-0.2,6.4-0.2,9.6,0.1c0.7,0.1,1.5,0.1,2.2,0.2c0.2,0,0.5,0.1,0.7,0.1c1.5,0.3,3,0.5,4.5,0.9
		c4.1,1,6.4,2,9.9,4.3c0.1,0,0.3,0.2,0.5,0.3c0.2,0.1,0.3,0.3,0.5,0.4c0.6,0.5,1.2,1.1,1.8,1.7c0.3,0.3,0.5,0.6,0.8,0.9
		c0.1,0.1,0.2,0.3,0.4,0.5c0.1,0.1,0.1,0.2,0.1,0.2c0.3,0.5,0.6,0.9,0.9,1.4c0.3,0.5,0.5,1.2,0.9,1.6c0,0,0,0,0,0
		c0.1,0.2,0.2,0.5,0.3,0.7c0.3,0.8,0.4,1.5,0.6,2.3c0,0.1,0,0.2,0.1,0.3c0.1,0.6,0.1,1.2,0.1,1.7c0,0.8,0,1.7-0.1,2.5
		c0,0.1-0.1,0.6-0.1,0.9c-0.1,0.3-0.1,0.8-0.2,0.9c-0.2,0.9-0.4,1.9-0.7,2.8c-0.1,0.3-0.2,0.7-0.3,1c0,0-0.6,1.3-0.5,1.2
		c-0.3,0.6-0.6,1.3-1,1.9c-0.1,0.2-0.7,1-1,1.5c-0.1,0.2-0.2,0.3-0.3,0.4c-0.3,0.4-0.7,0.7-1,1.1c-0.7,0.7-1.3,1.3-2,1.9
		c-0.1,0.1-0.5,0.4-0.7,0.6c-0.3,0.2-1,0.7-1.2,0.8c-2.2,1.5-4.5,2.7-6.9,3.8c-0.2,0.1-1,0.4-1.3,0.5c-0.8,0.3-1.6,0.6-2.3,0.8
		c-1.8,0.6-3.6,1.1-5.5,1.5c-4,0.9-7,1.1-11.4,1.2c-4.3,0.1-8.6,0-12.9-0.3c-1.8-0.1-3.7-0.3-5.5-0.5c-0.1,0-0.7-0.1-0.9-0.1
		c-0.2,0-0.5-0.1-0.5-0.1c-1.1-0.2-2.3-0.4-3.4-0.6c-3.5-0.7-7-1.5-10.4-2.7c-3.6-1.2-4.8-1.7-8.2-3.4c-3.4-1.7-6.6-3.6-9.7-5.7
		c-3-2-7.4-0.6-9.1,2.4c-1.9,3.3-0.6,7.1,2.4,9.1c12.6,8.4,26.6,13.1,41.7,14.6c15.4,1.5,31.6,1,45.7-6.1c4.4-2.2,8.6-5.2,12-8.7
		c5-5.3,7.7-12.1,8.5-19.3C489.1,198.6,477.3,186,462.6,181.9z M226.8,233.5C226.8,233.5,226.8,233.5,226.8,233.5
		C226.9,233.5,227.4,233.8,226.8,233.5z M378.1,176C378.3,175.7,378.7,175.3,378.1,176L378.1,176z M356.5,191.6
		c-1.9,0-3.8-0.1-5.8-0.2c-1,0-1.9-0.1-2.9-0.2c-0.5,0-1-0.1-1.5-0.1c-0.1,0-1-0.1-1.1-0.1c-1.5-0.2-3-0.5-4.5-0.9
		c-0.8-0.2-1.7-0.5-2.5-0.7c-0.3-0.1-1.7-0.6-1.6-0.6c-1.2-0.5-2.4-1.1-3.5-1.8c-0.2-0.1-1.2-0.8-1.4-0.9c0,0,0,0-0.1,0
		c-0.4-0.3-0.8-0.7-1.1-1c-0.4-0.4-0.8-0.8-1.2-1.3c-0.1-0.1-0.2-0.2-0.2-0.2c0,0,0-0.1-0.1-0.1c-0.3-0.5-0.7-1-1-1.6
		c-0.2-0.3-0.4-0.8-0.5-1c-0.3-0.9-0.4-1.9-0.8-2.7c0-0.1,0-0.2,0-0.3c0-0.7,0-1.4,0-2.1c0-0.3,0-0.5,0.1-0.7c0,0.1,0,0.2-0.1,0.3
		c0-0.2,0.1-0.3,0.1-0.5c0,0,0,0,0,0c0.1-0.5,0.2-0.9,0.3-1.4c0.2-0.6,0.4-1.3,0.6-1.9c0,0,0,0,0,0c0.1-0.2,0.3-0.7,0.4-0.8
		c2.9-5.8,7.6-10,13-13.2c1.4-0.8,2.8-1.6,4.3-2.3c1.3-0.6,2.5-1.1,4.6-1.8c3.4-1.1,6.9-2,10.5-2.6c0.3-0.1,0.7-0.1,1-0.2
		c0.1,0,0.2,0,0.2,0c0,0,0,0,0.1,0c0.8-0.1,1.6-0.2,2.4-0.3c1.9-0.2,3.7-0.3,5.6-0.3c0.8,0,1.6,0.1,2.4,0.1c-0.1,0,1.2,0.2,1.4,0.3
		c0.7,0.2,1.4,0.3,2,0.6c0.2,0.1,0.4,0.1,0.6,0.2c0.2,0.1,0.5,0.2,0.7,0.3c0.6,0.4,1.3,0.7,1.9,1.1c0.1,0.1,0.2,0.1,0.3,0.2
		c0.1,0.1,0.2,0.2,0.3,0.2c0.5,0.5,1,1,1.4,1.5c0,0,0,0,0,0c0.1,0.2,0.4,0.6,0.5,0.7c0.4,0.6,0.7,1.2,1,1.8c0,0.1,0,0.1,0.1,0.1
		c0,0.1,0.1,0.2,0.1,0.4c0.2,0.6,0.4,1.2,0.5,1.7c0.1,0.3,0.1,0.7,0.2,1c0,0,0,0,0,0c0,0,0,0,0,0.1c-0.1,1.4,0.1,2.8,0,4.1
		c0,0,0,0,0,0c0,0,0-0.1,0-0.1c0,0,0,0.1,0,0.1c0,0.3-0.1,0.8-0.1,0.5c0,0.1,0,0.2,0,0.2c-0.2,0.9-0.4,1.7-0.6,2.6
		c-0.2,0.7-0.5,1.3-0.7,2c0,0,0,0,0,0c-0.1,0.2-0.2,0.4-0.3,0.6c-0.6,1.1-1.2,2.2-1.9,3.2c-0.3,0.5-0.7,1-1,1.5
		c-0.2,0.3-0.4,0.5-0.6,0.8c0,0,0,0,0,0c-1,1.2-2,2.4-3,3.5c-2.2,2.4-4.5,4.6-6.8,6.8c-2,1.8-4,3.6-6.1,5.3
		C360.3,191.6,358.4,191.6,356.5,191.6z"/>
	<path class="st1" d="M427.8,170.9c1.6,0,2.8-1.3,2.8-2.8v-22.7c0-1.6-1.3-2.8-2.8-2.8c-1.6,0-2.8,1.3-2.8,2.8v8.3h-10.7v-8.3
		c0-1.6-1.3-2.8-2.8-2.8h0c-1.6,0-2.8,1.3-2.8,2.8v22.7c0,1.6,1.3,2.8,2.8,2.8h0c1.6,0,2.8-1.3,2.8-2.8v-9.4H425v9.4
		C425,169.7,426.2,170.9,427.8,170.9z"/>
	<path class="st1" d="M448.8,171.4c7.5,0,12.6-5.6,12.6-14.8c0-9.2-5.2-14.6-12.6-14.6s-12.6,5.3-12.6,14.6
		C436.1,165.8,441.3,171.4,448.8,171.4z M448.8,147c4.2,0,6.9,3.6,6.9,9.7c0,6-2.7,9.9-6.9,9.9s-6.9-3.9-6.9-9.9
		C441.9,150.6,444.6,147,448.8,147z"/>
	<path class="st1" d="M478.2,142.1c-7.5,0-12.6,5.3-12.6,14.6c0,9.2,5.2,14.8,12.6,14.8s12.6-5.6,12.6-14.8
		C490.8,147.5,485.7,142.1,478.2,142.1z M478.2,166.6c-4.2,0-6.9-3.9-6.9-9.9c0-6.1,2.7-9.7,6.9-9.7s6.9,3.6,6.9,9.7
		C485,162.7,482.4,166.6,478.2,166.6z"/>
	<path class="st1" d="M516.9,166.9l-7.8-13.1l5.6-7.2c1.2-1.6,0.1-4-1.9-4c-0.8,0-1.5,0.4-2,1l-8.6,11.3H502v-9.5
		c0-1.6-1.3-2.8-2.8-2.8c-1.6,0-2.8,1.3-2.8,2.8v22.6c0,1.6,1.3,2.8,2.8,2.8c1.6,0,2.8-1.3,2.8-2.8V163l3.7-4.8l6.6,11.4
		c0.5,0.8,1.3,1.3,2.3,1.3C516.6,170.9,517.9,168.7,516.9,166.9z"/>
</g>
</svg>
